<?xml version="1.0" encoding="UTF-8" standalone="no"?>
<svg width="468px" height="175px" viewBox="0 0 468 175" version="1.1" xmlns="http://www.w3.org/2000/svg" xmlns:xlink="http://www.w3.org/1999/xlink">
    <!-- Generator: Sketch 39.1 (31720) - http://www.bohemiancoding.com/sketch -->
    <title>IBM LOGO z eRka</title>
    <desc>Created with Sketch.</desc>
    <defs></defs>
    <g id="Page-1" stroke="none" stroke-width="1" fill="none" fill-rule="evenodd">
        <g id="IBM-LOGO-z-eRka" fill="#30609E">
            <path d="M444.367,163.355 C444.367,156.979 449.539,151.792 455.93,151.792 C462.305,151.792 467.442,156.979 467.442,163.355 C467.442,169.771 462.305,174.957 455.93,174.957 C449.539,174.957 444.367,169.771 444.367,163.355 L444.367,163.355 Z M465.613,163.355 C465.613,157.708 461.525,153.305 455.93,153.305 C450.299,153.305 446.19,157.708 446.19,163.355 C446.19,169.035 450.299,173.438 455.93,173.438 C461.525,173.438 465.613,169.035 465.613,163.355 L465.613,163.355 Z M461.681,169.825 L459.797,169.825 L456.104,163.869 L453.231,163.869 L453.231,169.825 L451.638,169.825 L451.638,156.904 L457.269,156.904 C460.677,156.904 461.836,158.177 461.836,160.326 C461.836,162.86 460.081,163.809 457.789,163.869 L461.681,169.825 L461.681,169.825 Z M455.63,162.605 C457.449,162.605 460.132,162.914 460.132,160.287 C460.132,158.273 458.488,158.023 456.909,158.023 L453.231,158.023 L453.231,162.605 L455.63,162.605 Z" id="Fill-1"></path>
            <path d="M352.285,35.811 L432.579,35.811 L432.579,23.654 L356.599,23.654 L352.285,35.811 L352.285,35.811 Z M360.445,12.776 L432.579,12.776 L432.579,0.618 L364.753,0.618 L360.445,12.776 L360.445,12.776 Z M344.13,58.851 L408.545,58.851 L408.545,46.689 L348.434,46.689 L344.13,58.851 L344.13,58.851 Z M316.293,23.654 L240.322,23.654 L240.322,35.811 L320.601,35.811 L316.293,23.654 L316.293,23.654 Z M308.139,0.618 L240.322,0.618 L240.322,12.776 L312.441,12.776 L308.139,0.618 L308.139,0.618 Z M340.283,69.729 L336.445,80.637 L332.612,69.729 L264.352,69.729 L264.352,81.886 L300.398,81.886 L300.398,72.307 L303.731,81.886 L369.155,81.886 L372.492,72.307 L372.492,72.377 L372.498,72.377 L372.498,81.886 L408.545,81.886 L408.545,69.729 L340.283,69.729 L340.283,69.729 Z M324.453,46.689 L264.342,46.689 L264.342,58.851 L328.761,58.851 L324.453,46.689 L324.453,46.689 Z M372.498,150.997 L432.579,150.997 L432.579,138.84 L372.498,138.84 L372.498,150.997 Z M372.492,174.037 L432.579,174.037 L432.579,161.875 L372.492,161.875 L372.492,174.037 Z M372.503,104.926 L408.545,104.926 L408.545,92.77 L372.503,92.77 L372.503,104.926 Z M372.503,127.962 L408.545,127.962 L408.545,115.805 L372.503,115.805 L372.503,127.962 Z M327.792,150.997 L345.091,150.997 L349.328,138.84 L323.559,138.84 L327.792,150.997 L327.792,150.997 Z M240.317,150.997 L300.394,150.997 L300.394,138.84 L240.317,138.84 L240.317,150.997 Z M240.317,174.037 L300.394,174.037 L300.394,161.875 L240.317,161.875 L240.317,174.037 Z M264.347,104.926 L300.398,104.926 L300.398,92.77 L264.347,92.77 L264.347,104.926 Z M264.347,127.962 L300.398,127.962 L300.398,115.805 L264.347,115.805 L264.347,127.962 Z M335.815,174.037 L337.07,174.037 L341.313,161.875 L331.579,161.875 L335.815,174.037 L335.815,174.037 Z M311.751,104.926 L361.141,104.926 L365.363,92.77 L307.52,92.77 L311.751,104.926 L311.751,104.926 Z M315.544,115.805 L357.348,115.805 L353.115,127.967 L319.767,127.967 L315.544,115.805 Z" id="Fill-2"></path>
            <path d="M120.154,58.851 L156.201,58.851 L156.201,46.689 L120.154,46.689 L120.154,58.851 Z M120.154,127.962 L156.201,127.962 L156.201,115.805 L120.154,115.805 L120.154,127.962 Z M96.123,12.776 L216.642,12.776 C205.964,3.721 196.524,0.613 179.985,0.613 L96.123,0.613 L96.123,12.776 L96.123,12.776 Z M96.123,174.037 L179.985,174.037 C196.524,174.037 205.964,170.925 216.642,161.875 L96.123,161.875 L96.123,174.037 L96.123,174.037 Z M120.148,81.886 L212.754,81.886 C215.768,79.778 221.304,72.837 223.538,69.729 L120.148,69.729 L120.148,81.886 L120.148,81.886 Z M120.148,104.926 L223.443,104.926 C221.204,101.803 215.627,94.878 212.614,92.77 L120.148,92.77 L120.148,104.926 L120.148,104.926 Z M96.123,35.811 L229.639,35.811 C229.324,33.222 226.8,25.652 225.687,23.654 L96.123,23.654 L96.123,35.811 L96.123,35.811 Z M96.123,150.997 L225.466,150.997 C226.67,149.228 229.229,141.623 229.419,138.84 L96.123,138.84 L96.123,150.997 L96.123,150.997 Z M192.252,58.851 L228.639,58.851 C229.584,56.407 230.638,49.507 230.643,46.689 L192.252,46.689 L192.252,58.851 L192.252,58.851 Z M192.252,115.805 L228.684,115.805 C229.639,118.243 230.893,124.784 230.788,127.967 L192.252,127.967 L192.252,115.805 Z" id="Fill-3"></path>
            <path d="M0,174.037 L84.106,174.037 L84.106,161.875 L0,161.875 L0,174.037 Z M24.02,58.851 L60.072,58.851 L60.072,46.689 L24.02,46.689 L24.02,58.851 Z M24.02,81.886 L60.072,81.886 L60.072,69.729 L24.02,69.729 L24.02,81.886 Z M24.02,104.926 L60.072,104.926 L60.072,92.77 L24.02,92.77 L24.02,104.926 Z M24.02,127.962 L60.072,127.962 L60.072,115.805 L24.02,115.805 L24.02,127.962 Z M0,150.997 L84.106,150.997 L84.106,138.84 L0,138.84 L0,150.997 Z M0,35.811 L84.106,35.811 L84.106,23.654 L0,23.654 L0,35.811 Z M0,12.776 L84.106,12.776 L84.106,0.618 L0,0.618 L0,12.776 Z" id="Fill-4"></path>
        </g>
    </g>
</svg>